<svg xmlns="http://www.w3.org/2000/svg" aria-hidden="true" viewBox="0 0 24 24"><path fill="#4285F4" d="M21.35 12.27q0-1.19-.2-2.27H12v4.3h5.24a4.5 4.5 0 0 1-1.94 2.94v2.45h3.15c1.85-1.7 2.9-4.2 2.9-7.42"/><path fill="#34A853" d="M12 21.8c2.64 0 4.86-.87 6.48-2.35L15.33 17a6 6 0 0 1-3.33.92 5.9 5.9 0 0 1-5.51-4.06H3.24v2.52A9.8 9.8 0 0 0 12 21.8"/><path fill="#FBBC05" d="M6.49 13.86a6 6 0 0 1 0-3.72V7.62H3.24a9.8 9.8 0 0 0 0 8.76z"/><path fill="#EA4335" d="M12 6.08c1.43 0 2.72.49 3.74 1.45l2.8-2.8A9.3 9.3 0 0 0 12 2.2a9.8 9.8 0 0 0-8.76 5.42l3.25 2.52A5.9 5.9 0 0 1 12 6.08"/></svg>