<svg viewBox="0 0 24 24" xmlns="http://www.w3.org/2000/svg" aria-hidden="true">
      <path fill="#4285F4" d="M21.35 12.27c0-.79-.07-1.55-.2-2.27H12v4.3h5.24a4.48 4.48 0 0 1-1.94 2.94v2.45h3.15c1.85-1.7 2.9-4.2 2.9-7.42Z"/>
      <path fill="#34A853" d="M12 21.8c2.64 0 4.86-.87 6.48-2.35l-3.15-2.45c-.87.58-1.98.92-3.33.92-2.56 0-4.73-1.73-5.51-4.06H3.24v2.52A9.8 9.8 0 0 0 12 21.8Z"/>
      <path fill="#FBBC05" d="M6.49 13.86a5.9 5.9 0 0 1 0-3.72V7.62H3.24a9.8 9.8 0 0 0 0 8.76l3.25-2.52Z"/>
      <path fill="#EA4335" d="M12 6.08c1.43 0 2.72.49 3.74 1.45l2.8-2.8C16.85 3.14 14.63 2.2 12 2.2a9.8 9.8 0 0 0-8.76 5.42l3.25 2.52C7.27 7.81 9.44 6.08 12 6.08Z"/>
    </svg>
